PathFileType	4	(X/Y/Z)	C:/Users/opensim2020/Desktop/walking_exp_matlab/subject03_walking05_straight_02.trc	
DataRate	CameraRate	NumFrames	NumMarkers	Units	OrigDataRate	OrigDataStartFrame	OrigNumFrames	
100.00	100.00	4	45	mm	100.00	1508	252	
Frame#	Time	LFHD			RFHD			LBHD			RBHD			C7			T10			CLAV			STRN			RBAK			LSHO			LUPA			LELB			LFRM			LWRA			LWRB			LFIN			RSHO			RUPA			RELB			RFRM			RWRA			RWRB			RFIN			LASI			RASI			LPSI			RPSI			LTHI			LKNE			LTIB			LANK			LHEE			LTOE			RTHI			RKNE			RTIB			RANK			RHEE			RTOE			*39			*40			*41			*42			*43			*44			
		X1	Y1	Z1	X2	Y2	Z2	X3	Y3	Z3	X4	Y4	Z4	X5	Y5	Z5	X6	Y6	Z6	X7	Y7	Z7	X8	Y8	Z8	X9	Y9	Z9	X10	Y10	Z10	X11	Y11	Z11	X12	Y12	Z12	X13	Y13	Z13	X14	Y14	Z14	X15	Y15	Z15	X16	Y16	Z16	X17	Y17	Z17	X18	Y18	Z18	X19	Y19	Z19	X20	Y20	Z20	X21	Y21	Z21	X22	Y22	Z22	X23	Y23	Z23	X24	Y24	Z24	X25	Y25	Z25	X26	Y26	Z26	X27	Y27	Z27	X28	Y28	Z28	X29	Y29	Z29	X30	Y30	Z30	X31	Y31	Z31	X32	Y32	Z32	X33	Y33	Z33	X34	Y34	Z34	X35	Y35	Z35	X36	Y36	Z36	X37	Y37	Z37	X38	Y38	Z38	X39	Y39	Z39	X40	Y40	Z40	X41	Y41	Z41	X42	Y42	Z42	X43	Y43	Z43	X44	Y44	Z44	X45	Y45	Z45	

32	0.310	1512.75708	961.81183	1607.14270	1380.82471	978.00073	1616.41064	1522.31226	1090.21277	1564.31067	1391.60693	1100.90698	1573.03418	1456.54358	1131.31079	1411.23816	1457.26953	1174.15723	1098.08923	1450.88977	1011.13306	1331.12500	1451.23438	972.01501	1165.98706	1356.56653	1192.05212	1239.43250	1610.12939	1052.41284	1366.71423	1673.07605	1093.21631	1168.65027	1678.74097	1110.72778	1045.36426	1673.98499	1111.28564	915.10400	1641.19141	1115.76270	797.72205	1690.15759	1140.04883	804.54254	1674.87988	1145.86011	719.68127	1293.66187	1059.47754	1358.79114	1216.86792	1023.24994	1142.51733	1205.31982	979.44635	1039.05176	1211.40222	917.67584	917.37646	1254.83936	860.02246	840.80316	1209.98853	883.93561	822.91925	1224.91077	836.77771	766.79364	1560.02698	993.11237	934.83264	1324.07959	1018.57343	930.55530	1529.34119	1161.03479	949.64874	1379.72290	1173.60559	960.49524	1614.92224	971.44366	638.43500	1568.38623	907.13623	475.17380	1573.44727	902.65912	282.95224	1539.31421	855.80286	76.76531	1499.92993	887.63660	34.54228	1508.21619	704.98993	67.14702	1308.05505	1106.23523	637.07208	1354.09900	1121.02551	459.92307	1367.08337	1204.49084	285.37793	1432.28979	1273.15479	83.58174	1487.33044	1316.84241	58.73965	1436.43420	1135.71289	36.76551	1469.80237	1049.11743	1668.30481															 
33	0.320	1513.21814	952.44330	1606.09204	1381.35522	968.62439	1615.58484	1522.68005	1080.78687	1562.85730	1391.74133	1091.31384	1571.71375	1456.86438	1121.41907	1410.11792	1458.23804	1164.11389	1096.99109	1450.82288	1001.16437	1329.92566	1450.87292	962.09540	1164.39954	1357.10034	1182.60913	1238.52002	1610.29492	1042.15234	1365.57666	1673.15662	1084.25049	1167.77905	1678.72119	1102.59094	1044.57446	1673.92822	1104.40100	914.32288	1640.94580	1109.94751	796.98419	1690.09705	1134.12573	803.98511	1675.33752	1139.45605	719.37512	1293.84180	1049.96509	1357.63049	1216.96948	1013.59357	1141.45203	1205.52588	969.42261	1038.12549	1212.27026	906.67596	917.02863	1256.21130	848.33496	841.28064	1211.37500	872.02728	822.93811	1226.53357	824.16699	767.51324	1560.05261	982.51752	933.51855	1324.14636	1009.47913	929.60321	1530.52344	1150.57874	948.39496	1381.03650	1164.23999	959.44824	1614.77393	963.16193	635.94604	1566.76807	899.77185	472.94925	1571.00146	889.39886	281.99911	1536.61011	834.69397	77.04118	1497.35266	865.04022	34.53040	1505.10815	683.20837	71.86056	1307.55627	1099.17517	636.83075	1353.45654	1115.01123	459.54126	1366.56311	1200.88391	286.04874	1431.72461	1272.42773	84.98021	1486.84521	1316.46118	60.98907	1436.22522	1135.52271	36.67771	1469.82910	1040.06738	1666.92627															 
34	0.330	1513.80493	943.09363	1605.12500	1381.89697	959.30054	1614.85828	1523.24536	1071.39197	1561.49121	1392.13989	1081.75757	1570.56689	1457.08948	1111.28552	1408.89807	1459.16162	1153.98120	1095.95483	1450.81726	991.12134	1328.79871	1450.56445	951.90717	1163.38989	1357.70496	1173.05896	1237.60071	1610.45020	1031.67847	1364.46814	1673.25403	1074.91772	1166.83191	1678.67749	1094.04285	1043.71655	1673.88940	1097.00891	913.57538	1639.98193	1103.62390	795.75159	1690.05591	1127.63843	803.44873	1675.57581	1132.44556	718.93945	1294.02991	1040.32141	1356.55383	1217.25513	1003.89191	1140.50586	1205.89441	959.53436	1037.24341	1213.23413	895.87512	916.65930	1257.56042	836.98767	841.52557	1212.76001	860.58984	822.83093	1228.22437	812.09955	768.01349	1560.03784	971.93915	932.25977	1324.21887	1000.24152	928.64758	1531.75024	1139.97742	947.19043	1382.38855	1154.71155	958.51031	1614.52356	954.74176	633.63135	1564.66748	892.13080	470.78729	1568.65100	876.89771	281.23370	1534.74670	815.63153	77.95776	1495.31104	844.81158	34.83718	1502.42639	663.57355	75.80451	1307.44299	1091.63721	636.56531	1352.81458	1108.78662	459.26712	1366.08972	1197.06299	286.76282	1431.22437	1271.67908	86.82680	1486.22498	1315.96619	63.36884	1436.02246	1135.32959	36.60505	1476.44531	1030.85486	1669.51794															 
35	0.340	1514.43616	933.66730	1604.23608	1382.50659	949.87354	1614.23389	1523.55847	1061.71631	1560.10278	1393.40442	1072.67236	1569.69165	1457.73303	1101.27930	1407.99048	1459.90527	1143.71338	1094.94995	1450.76270	980.93005	1327.67810	1450.28772	941.95856	1162.17358	1358.38940	1163.46216	1236.78943	1610.66443	1021.13092	1363.34131	1673.37158	1065.23901	1165.88025	1678.74158	1085.06226	1042.88623	1673.76770	1089.11121	912.72754	1640.57593	1096.83264	795.60999	1690.06702	1120.50134	802.87793	1676.02295	1124.84839	718.53528	1294.19336	1030.64514	1355.60327	1217.61401	994.27856	1139.68396	1206.39221	949.76666	1036.40210	1214.17236	885.43195	916.27325	1258.86841	826.18634	841.79718	1214.15808	849.50946	822.66571	1229.98987	800.45715	768.52661	1560.05151	961.18945	931.26965	1324.28503	990.80145	927.76068	1532.92957	1129.22119	946.16962	1383.64221	1144.98743	957.54242	1614.03442	946.21179	631.51324	1562.56738	884.38306	468.74918	1566.53235	865.10254	280.63690	1532.81592	798.72803	78.47457	1493.66199	827.17651	35.06017	1500.25293	646.34735	78.99133	1307.38879	1083.97351	636.32410	1352.21619	1102.30823	458.98462	1365.54663	1193.07043	287.62415	1430.70715	1270.76611	88.67161	1485.66028	1315.39441	66.07877	1435.78674	1135.13782	36.49847	1477.01489	1021.55133	1667.92932															 
